<?xml version="1.0" standalone="no"?>
<!DOCTYPE svg PUBLIC "-//W3C//DTD SVG 20010904//EN"
 "http://www.w3.org/TR/2001/REC-SVG-20010904/DTD/svg10.dtd">
<svg version="1.0" xmlns="http://www.w3.org/2000/svg"
 width="650.000000pt" height="287.000000pt" viewBox="0 0 650.000000 287.000000"
 preserveAspectRatio="xMidYMid meet">

<g transform="translate(0.000000,287.000000) scale(0.100000,-0.100000)"
fill="#000000" stroke="none">
<path d="M0 1435 l0 -1435 3250 0 3250 0 0 1435 0 1435 -3250 0 -3250 0 0
-1435z m2605 980 c35 -34 35 -96 0 -130 -18 -19 -35 -25 -70 -25 -62 0 -95 32
-95 90 0 58 33 90 95 90 35 0 52 -6 70 -25z m2570 0 c19 -18 25 -35 25 -65 0
-58 -33 -90 -95 -90 -62 0 -95 32 -95 90 0 58 33 90 95 90 35 0 52 -6 70 -25z
m43 -486 l2 -257 -189 -7 c-104 -4 -194 -4 -200 -1 -6 4 -16 27 -22 51 -6 24
-22 54 -36 67 -22 20 -36 23 -124 26 l-99 4 0 -76 0 -76 -58 0 c-33 0 -119 3
-194 6 l-134 7 -22 38 -23 39 -159 0 -159 0 -22 -40 -23 -40 -193 0 -192 0 -3
155 -3 154 -90 -155 -90 -155 -85 3 -84 3 -91 153 -90 153 -3 -154 -2 -154
-293 -6 c-371 -9 -595 -9 -731 0 l-108 6 -24 39 -24 38 -159 0 -160 0 -22 -40
-23 -40 -108 0 c-59 0 -108 3 -108 8 0 4 72 117 159 252 l158 245 104 3 104 2
118 -185 c66 -102 123 -188 128 -191 5 -3 81 50 169 118 l161 123 -165 3 -166
2 0 65 0 65 518 0 517 -1 110 -174 c61 -96 114 -174 118 -172 5 1 57 79 116
172 l107 170 132 3 132 3 2 -205 3 -206 130 203 131 202 104 2 105 3 130 -204
130 -205 3 210 2 209 443 -2 442 -3 3 -256z m-1428 -436 c0 -10 -60 -396 -65
-420 -7 -29 -45 -32 -45 -3 0 18 -2 18 -36 -5 -65 -44 -157 -27 -189 35 -20
38 -19 123 1 163 35 69 88 107 149 107 41 0 95 -24 95 -43 1 -27 18 21 24 68
13 98 16 105 42 105 13 0 24 -3 24 -7z m604 -18 c14 -37 -33 -70 -61 -42 -12
12 -13 19 -4 36 14 24 56 28 65 6z m-2378 -65 l-7 -50 65 0 c59 0 64 -2 59
-20 -5 -17 -14 -20 -68 -20 l-62 0 -17 -100 c-18 -109 -12 -140 25 -140 12 0
34 14 49 30 18 19 34 28 44 24 24 -9 20 -22 -18 -60 -44 -44 -103 -48 -141 -9
-28 27 -30 44 -15 131 23 136 24 124 -10 124 -23 0 -30 4 -30 20 0 16 7 20 34
20 32 0 34 2 40 42 8 52 12 58 38 58 19 0 20 -4 14 -50z m-687 -55 c27 -13 60
-75 41 -75 -4 0 -15 -3 -24 -6 -11 -4 -19 2 -25 19 -21 53 -121 39 -121 -17 0
-25 18 -35 94 -55 54 -14 76 -37 76 -81 0 -75 -105 -124 -193 -91 -60 23 -93
101 -43 101 17 0 26 -7 30 -24 7 -30 55 -50 100 -42 41 8 59 27 54 58 -2 19
-16 27 -71 45 -38 12 -75 27 -83 34 -16 13 -19 72 -4 99 25 46 114 64 169 35z
m3812 -8 c94 -63 58 -245 -58 -293 -73 -31 -159 -9 -188 46 -31 60 -9 177 41
222 60 53 148 64 205 25z m-2427 -14 c-21 -113 -30 -201 -23 -220 18 -47 108
-35 143 19 11 17 46 186 46 223 0 3 11 5 25 5 30 0 30 5 2 -170 -20 -125 -24
-135 -45 -138 -15 -2 -22 2 -22 12 0 13 -5 13 -32 -4 -63 -38 -155 -17 -173
40 -5 17 18 211 30 248 3 6 16 12 29 12 22 0 25 -3 20 -27z m1656 22 c0 -10
-40 -260 -45 -282 -4 -16 -13 -23 -30 -23 -21 0 -25 4 -21 23 3 12 12 69 21
127 24 161 23 160 51 160 13 0 24 -2 24 -5z"/>
<path d="M4550 1995 l0 -58 115 5 c93 3 118 8 135 23 11 10 20 23 20 30 0 7
-9 20 -20 30 -17 15 -42 20 -135 23 l-115 5 0 -58z"/>
<path d="M1450 1957 c-19 -34 -36 -65 -38 -69 -2 -5 35 -8 81 -8 l85 0 -40 70
c-22 39 -43 70 -47 70 -3 0 -22 -28 -41 -63z"/>
<path d="M2246 1905 l-148 -115 151 0 151 0 0 115 c0 63 -1 115 -2 115 -2 0
-70 -52 -152 -115z"/>
<path d="M3918 1955 c-21 -35 -38 -66 -38 -69 0 -3 36 -6 80 -6 44 0 80 2 80
5 0 10 -72 135 -78 135 -4 0 -24 -29 -44 -65z"/>
<path d="M3570 1313 c-49 -25 -80 -76 -80 -130 0 -58 12 -79 55 -93 50 -17
102 11 133 71 54 103 -15 199 -108 152z"/>
<path d="M5011 1313 c-45 -24 -71 -60 -78 -111 -8 -63 3 -91 43 -108 74 -31
150 21 168 114 6 32 -12 94 -30 105 -28 16 -72 16 -103 0z"/>
</g>
</svg>
